<svg version="1.1" id="avatar-default" xmlns="http://www.w3.org/2000/svg" x="0" y="0" viewBox="0 0 500 500" xml:space="preserve"><style>.st1{fill:#323642}</style><circle cx="251" cy="254.3" r="244.3" fill="#ccc"/><ellipse class="st1" cx="253" cy="173.1" rx="101.2" ry="102.1"/><path class="st1" d="M297.9 323.1h-89.5c-59.2 0-107.3 48.4-107.3 108.2l.2 13.1s5.7 4.6 12.4 9.2c6.2 4.3 13.6 8.3 16.8 10.1 9.2 5.2 61.4 33.1 116.3 32.4 76.2-1.1 117.1-26.4 140.3-41.3 3.1-2 6.2-4.4 9.2-6.6 4.9-3.6 8.8-6.7 8.8-6.7l.1-10.1c0-59.9-48.1-108.3-107.3-108.3z"/></svg>