<svg width="50" height="50" fill="none" xmlns="http://www.w3.org/2000/svg"><path d="M46.5 22.142l-1.295-5.075a.771.771 0 0 0 .62-.75v-.82c0-1.776-1.475-3.221-3.288-3.221h-5.898v-1.688c0-.875-.726-1.586-1.618-1.586H6.069c-.892 0-1.618.711-1.618 1.586V24.5c0 .424.35.767.783.767a.775.775 0 0 0 .783-.767V10.588c0-.029.024-.051.052-.051h28.952c.029 0 .052.022.052.05V24.5c0 .424.35.767.783.767a.775.775 0 0 0 .783-.767v-.87h9.239c1.137.001 2.102.732 2.433 1.74h-2.434a.775.775 0 0 0-.783.767v1.636c0 1.326 1.1 2.404 2.453 2.404h.887v3.376h-2.047c-.672-1.903-2.518-3.273-4.686-3.273-2.167 0-4.013 1.37-4.685 3.273h-.377v-5.78a.775.775 0 0 0-.783-.767.775.775 0 0 0-.783.767v5.78H19.94c-.672-1.903-2.518-3.274-4.686-3.274-2.167 0-4.013 1.371-4.686 3.274h-4.5a.052.052 0 0 1-.052-.051v-1.688H9.41a.775.775 0 0 0 .783-.767.775.775 0 0 0-.783-.768H1.894a.775.775 0 0 0-.783.768c0 .424.35.767.783.767h2.558v1.688c0 .874.725 1.585 1.618 1.585h4.228l-.001.052c0 2.679 2.224 4.859 4.958 4.859s4.958-2.18 4.958-4.86v-.05h16.532l-.002.05c0 2.68 2.224 4.86 4.958 4.86s4.959-2.18 4.959-4.86l-.002-.05h2.56A.775.775 0 0 0 50 34.32v-8.183c0-2.02-1.521-3.7-3.5-3.995zm-9.861-8.332h5.898c.95 0 1.722.757 1.722 1.688v.051h-7.62V13.81zm0 8.286v-5.013h6.956l1.28 5.013h-8.236zM15.255 38.463c-1.87 0-3.392-1.49-3.392-3.324 0-1.834 1.522-3.325 3.392-3.325 1.87 0 3.393 1.492 3.393 3.325 0 1.833-1.522 3.324-3.393 3.324zm26.447 0c-1.871 0-3.393-1.49-3.393-3.324 0-1.834 1.522-3.325 3.393-3.325 1.87 0 3.392 1.492 3.392 3.325 0 1.833-1.522 3.324-3.392 3.324zm6.732-9.82h-.887a.88.88 0 0 1-.887-.87v-.87h1.774v1.74z" fill="#333"/><path d="M32.516 30.28h-9.47a.775.775 0 0 0-.782.767c0 .424.35.767.783.767h9.469a.775.775 0 0 0 .782-.767.775.775 0 0 0-.782-.767zM12.474 27.006H2.453a.775.775 0 0 0-.783.768c0 .423.35.767.783.767h10.02a.775.775 0 0 0 .784-.767.775.775 0 0 0-.783-.768z" fill="#FF4000"/></svg>