<svg width="50" height="50" fill="none" xmlns="http://www.w3.org/2000/svg"><path fill-rule="evenodd" clip-rule="evenodd" d="M29.582 9.057a15.155 15.155 0 0 0-17.424 17.955l14.613-3.908a.919.919 0 0 1 1.095 1.217l-5.428 14.12a15.154 15.154 0 1 0 7.144-29.384zm-10.674-.002a16.992 16.992 0 1 1 2.003 30.797.919.919 0 0 1-.527-1.187l5.12-13.32-13.786 3.686a.918.918 0 0 1-1.124-.65 16.992 16.992 0 0 1 8.314-19.326z" fill="#333"/><path fill-rule="evenodd" clip-rule="evenodd" d="M21.783 28.491a.919.919 0 0 1 .166.946l-5.217 13.209a.919.919 0 0 1-1.191.517 15.12 15.12 0 0 1-9.088-10.29.919.919 0 0 1 .66-1.12l13.752-3.543a.919.919 0 0 1 .918.281zm-2.205 1.948L8.491 33.296a13.283 13.283 0 0 0 6.882 7.791l4.205-10.648z" fill="#FF4000"/></svg>