<svg width="50" height="50" fill="none" xmlns="http://www.w3.org/2000/svg"><path d="M12.508 35.614c-.518 0-1.016.129-1.458.372A17.086 17.086 0 0 1 7.445 25.5c0-9.404 7.65-17.055 17.055-17.055 1.143 0 2.286.114 3.396.338a.723.723 0 0 0 .287-1.416A18.638 18.638 0 0 0 24.5 7a18.38 18.38 0 0 0-13.082 5.418A18.38 18.38 0 0 0 6 25.5c0 4.157 1.411 8.213 3.981 11.465a3.014 3.014 0 0 0-.509 1.684c0 .81.316 1.573.89 2.146.573.573 1.335.889 2.146.889.81 0 1.573-.316 2.146-.89a3.015 3.015 0 0 0 .889-2.146c0-.81-.316-1.573-.89-2.146a3.015 3.015 0 0 0-2.145-.889zm1.124 4.159c-.3.3-.7.465-1.124.465a1.58 1.58 0 0 1-1.124-.465c-.3-.3-.466-.7-.466-1.124 0-.425.165-.824.466-1.125.3-.3.699-.465 1.124-.465.424 0 .823.165 1.124.465.3.3.465.7.465 1.125 0 .424-.165.823-.465 1.124zM39.018 14.034a3.04 3.04 0 0 0-.38-3.829 3.016 3.016 0 0 0-2.145-.889c-.811 0-1.573.316-2.147.89a3.015 3.015 0 0 0-.889 2.145c0 .811.316 1.573.89 2.147a3.015 3.015 0 0 0 2.145.889c.519 0 1.016-.13 1.458-.373A17.086 17.086 0 0 1 41.555 25.5c0 9.404-7.65 17.055-17.055 17.055-1.132 0-2.264-.112-3.364-.332a.723.723 0 0 0-.284 1.417c1.194.239 2.421.36 3.648.36a18.38 18.38 0 0 0 13.082-5.419A18.38 18.38 0 0 0 43 25.5c0-4.157-1.412-8.214-3.982-11.466zm-3.65-.558c-.3-.3-.465-.7-.465-1.125 0-.424.165-.823.465-1.124.3-.3.7-.466 1.124-.466a1.592 1.592 0 0 1 0 3.18 1.58 1.58 0 0 1-1.124-.465z" fill="#333"/><path d="M21.518 37.93c0 .399.324.722.723.722h4.518c.4 0 .723-.323.723-.722v-1.401c.95-.256 1.858-.633 2.712-1.124l.99.989a.723.723 0 0 0 1.021 0l3.194-3.197a.723.723 0 0 0 0-1.022l-.988-.987c.492-.854.869-1.762 1.124-2.713h1.396c.4 0 .723-.323.723-.722v-4.519c0-.4-.324-.723-.723-.723h-1.396a11.321 11.321 0 0 0-1.124-2.712l.983-.982a.723.723 0 0 0 0-1.023l-3.197-3.193a.723.723 0 0 0-1.022 0l-.98.981a11.319 11.319 0 0 0-2.713-1.124V13.07c0-.399-.323-.722-.723-.722h-4.518a.723.723 0 0 0-.723.722v1.389c-.95.255-1.858.632-2.712 1.123l-.981-.981a.723.723 0 0 0-1.022 0l-3.196 3.194a.721.721 0 0 0 0 1.022l.982.982a11.313 11.313 0 0 0-1.124 2.712h-1.393c-.4 0-.723.324-.723.723l-.002 4.518a.722.722 0 0 0 .722.723h1.396c.256.95.632 1.859 1.124 2.712l-.988.988a.723.723 0 0 0 0 1.022l3.194 3.197c.135.135.32.212.51.212h.001a.723.723 0 0 0 .511-.212l.989-.99c.854.492 1.762.869 2.712 1.125v1.4zm-2.429-4.045a.723.723 0 0 0-.903.096l-.88.88-2.172-2.174.879-.88c.24-.24.28-.617.096-.903a9.89 9.89 0 0 1-1.369-3.303.723.723 0 0 0-.707-.571h-1.24l.001-3.073h1.24c.34 0 .634-.238.706-.571a9.892 9.892 0 0 1 1.369-3.303.722.722 0 0 0-.096-.903l-.874-.874 2.174-2.172.873.872c.241.241.617.281.903.096a9.886 9.886 0 0 1 3.304-1.368.723.723 0 0 0 .57-.707v-1.234h3.074v1.234c0 .34.237.635.57.706a9.896 9.896 0 0 1 3.304 1.37.722.722 0 0 0 .903-.097l.873-.872 2.174 2.172-.874.873a.723.723 0 0 0-.096.904 9.9 9.9 0 0 1 1.369 3.303c.071.333.366.57.707.57h1.241v3.074h-1.241a.723.723 0 0 0-.707.57 9.893 9.893 0 0 1-1.369 3.304.723.723 0 0 0 .096.903l.88.88-2.173 2.173-.88-.88a.722.722 0 0 0-.903-.095 9.898 9.898 0 0 1-3.304 1.369.723.723 0 0 0-.57.706v1.247h-3.074V35.96a.723.723 0 0 0-.57-.706 9.89 9.89 0 0 1-3.304-1.37z" fill="#333"/><path d="M30.471 25.5a5.978 5.978 0 0 0-5.971-5.971 5.978 5.978 0 0 0-5.971 5.971 5.978 5.978 0 0 0 5.971 5.971 5.978 5.978 0 0 0 5.971-5.971zm-10.497 0a4.53 4.53 0 0 1 4.526-4.526 4.531 4.531 0 0 1 4.526 4.526 4.531 4.531 0 0 1-4.526 4.526 4.531 4.531 0 0 1-4.526-4.526zM31.154 9.733c.19 0 .377-.077.511-.212a.731.731 0 0 0 .212-.511.73.73 0 0 0-.212-.511.726.726 0 0 0-1.234.51.726.726 0 0 0 .723.723zM17.877 41.28a.728.728 0 0 0-.51.212.728.728 0 0 0-.212.51.727.727 0 0 0 .722.723c.19 0 .377-.077.511-.212a.728.728 0 0 0 .212-.51.728.728 0 0 0-.212-.511.728.728 0 0 0-.51-.212z" fill="#FF4000"/></svg>